PathFileType	4	(X/Y/Z)
DataRate	CameraRate	NumFrames	NumMarkers	Units	OrigDataRate	OrigDataStartFrame	OrigNumFrames	
	120.0	120.0	12	39	mm	120.0	85	225
Frame#	Time	midhip	hip_r	hip_l	knee_r	knee_l	ankle_r	ankle_l	midasis	asis_r	asis_l	psis_r	psis_l	epicondLat_r	epicondLat_l	epicondMed_r	epicondMed_l	malleolusLat_r	malleolusLat_l	malleolusMedv_r	malleolusMedv_l	heel_r	heel_l	sternalnotch	xyphoidprocess	neck	subclavicle_r	subclavicle_l	toe_r	toe_l	thighwand_r	thighwand_l	upperleg1_r	upperleg1_l	upperleg2_r	upperleg2_l	shankwand_r	shankwand_l	lowerleg1_r	lowerleg1_l
	X1	Y1	Z1	X2	Y2	Z2	X3	Y3	Z3	X4	Y4	Z4	X5	Y5	Z5	X6	Y6	Z6	X7	Y7	Z7	X8	Y8	Z8	X9	Y9	Z9	X10	Y10	Z10	X11	Y11	Z11	X12	Y12	Z12	X13	Y13	Z13	X14	Y14	Z14	X15	Y15	Z15	X16	Y16	Z16	X17	Y17	Z17	X18	Y18	Z18	X19	Y19	Z19	X20	Y20	Z20	X21	Y21	Z21	X22	Y22	Z22	X23	Y23	Z23	X24	Y24	Z24	X25	Y25	Z25	X26	Y26	Z26	X27	Y27	Z27	X28	Y28	Z28	X29	Y29	Z29	X30	Y30	Z30	X31	Y31	Z31	X32	Y32	Z32	X33	Y33	Z33	X34	Y34	Z34	X35	Y35	Z35	X36	Y36	Z36	X37	Y37	Z37	X38	Y38	Z38	X39	Y39	Z39

	85	0.70833	711.909	910.285	-272.183	711.011	891.598	-223.627	708.865	893.459	-330.159	703.593	479.370	-200.443	709.808	481.753	-360.940	625.199	69.983	-179.168	656.053	68.644	-357.615	778.904	996.543	-276.465	781.048	994.684	-170.062	776.761	998.402	-382.868	575.653	1002.537	-228.664	572.488	1004.538	-316.695	715.830	482.420	-142.295	714.550	486.186	-420.084	690.084	500.449	-258.719	699.081	490.335	-313.609	623.189	72.337	-141.294	652.084	68.844	-396.915	621.960	70.318	-209.821	663.854	75.092	-328.326	580.333	45.675	-190.329	609.469	45.467	-355.829	689.825	1393.215	-280.494	735.688	1193.475	-284.465	600.389	1460.424	-287.640	702.168	1393.532	-198.751	702.214	1391.382	-354.284	745.412	42.795	-183.013	783.472	42.139	-372.746	754.557	601.796	-69.546	855.502	626.427	-361.374	765.206	659.543	-142.759	779.451	685.083	-397.890	762.009	577.580	-163.380	770.734	598.819	-399.672	653.448	144.028	-77.881	770.843	170.756	-356.309	644.851	202.318	-140.767	706.183	224.824	-364.746
	86	0.71667	711.818	910.346	-272.168	710.926	891.604	-223.543	708.723	893.460	-330.074	703.616	479.376	-200.435	709.782	481.778	-360.922	625.238	70.037	-179.159	656.085	68.674	-357.629	778.794	996.544	-276.422	780.995	994.690	-170.013	776.594	998.398	-382.831	575.552	1002.537	-228.548	572.338	1004.557	-316.584	715.855	482.418	-142.287	714.499	486.222	-420.068	690.017	500.462	-258.624	698.956	490.381	-313.577	623.229	72.390	-141.286	652.099	68.879	-396.927	621.954	70.369	-209.820	663.884	75.149	-328.332	580.328	45.737	-190.330	609.465	45.519	-355.833	689.891	1393.185	-280.541	735.748	1193.444	-284.571	600.348	1460.458	-287.622	702.358	1393.503	-198.952	702.169	1391.349	-354.213	745.407	42.795	-183.012	783.485	42.177	-372.746	754.617	601.827	-69.530	855.404	626.449	-361.379	765.164	659.559	-142.682	779.348	685.131	-397.835	761.989	577.598	-163.326	770.600	598.868	-399.642	653.482	144.040	-77.888	770.833	170.782	-356.321	644.863	202.357	-140.768	706.200	224.886	-364.732
	87	0.72500	711.737	910.412	-272.166	710.847	891.612	-223.463	708.579	893.467	-329.993	703.617	479.389	-200.415	709.751	481.802	-360.903	625.265	70.083	-179.150	656.117	68.701	-357.639	778.683	996.551	-276.385	780.949	994.699	-169.970	776.418	998.404	-382.801	575.463	1002.538	-228.434	572.188	1004.576	-316.462	715.862	482.425	-142.267	714.446	486.256	-420.050	690.010	500.490	-258.609	698.843	490.432	-313.547	623.260	72.435	-141.276	652.118	68.910	-396.935	621.963	70.415	-209.816	663.911	75.213	-328.327	580.326	45.791	-190.329	609.463	45.562	-355.833	689.956	1393.144	-280.574	735.749	1193.390	-284.683	600.309	1460.517	-287.584	702.540	1393.453	-199.061	702.126	1391.310	-354.208	745.403	42.803	-183.009	783.502	42.216	-372.743	754.667	601.859	-69.510	855.312	626.472	-361.377	765.156	659.584	-142.650	779.235	685.161	-397.817	762.001	577.615	-163.322	770.479	598.928	-399.625	653.513	144.049	-77.890	770.827	170.805	-356.325	644.863	202.376	-140.773	706.230	224.925	-364.750
	88	0.73333	711.670	910.483	-272.170	710.777	891.621	-223.396	708.442	893.478	-329.924	703.611	479.404	-200.390	709.706	481.816	-360.881	625.281	70.113	-179.142	656.145	68.718	-357.642	778.576	996.564	-276.358	780.908	994.709	-169.939	776.244	998.420	-382.777	575.386	1002.534	-228.320	572.039	1004.588	-316.321	715.860	482.437	-142.244	714.386	486.278	-420.029	689.986	500.543	-258.619	698.790	490.408	-313.498	623.279	72.462	-141.268	652.135	68.929	-396.938	621.995	70.425	-209.817	663.973	75.235	-328.321	580.325	45.825	-190.327	609.464	45.589	-355.829	689.832	1393.067	-280.508	735.383	1193.257	-284.556	600.288	1460.544	-287.557	702.319	1393.364	-198.891	702.088	1391.214	-354.216	745.398	42.815	-183.006	783.517	42.243	-372.738	754.700	601.882	-69.484	855.223	626.493	-361.367	765.194	659.593	-142.634	779.106	685.143	-397.797	762.012	577.621	-163.327	770.375	598.935	-399.599	653.536	144.053	-77.884	770.819	170.824	-356.323	644.943	202.335	-140.767	706.220	224.908	-364.734
	89	0.74167	711.613	910.509	-272.233	710.726	891.628	-223.347	708.328	893.491	-329.874	703.588	479.423	-200.362	709.642	481.820	-360.856	625.277	70.124	-179.138	656.158	68.724	-357.638	778.474	996.587	-276.343	780.870	994.725	-169.922	776.078	998.448	-382.764	575.358	1002.502	-228.176	571.897	1004.587	-316.169	715.844	482.453	-142.217	714.312	486.286	-420.004	689.951	500.575	-258.615	698.785	490.330	-313.403	623.280	72.470	-141.263	652.143	68.938	-396.933	621.993	70.393	-209.815	664.054	75.209	-328.318	580.322	45.831	-190.321	609.466	45.593	-355.816	689.596	1392.969	-280.392	734.826	1193.083	-284.310	600.273	1460.539	-287.551	701.843	1393.246	-198.572	702.067	1391.095	-354.229	745.393	42.831	-183.006	783.524	42.254	-372.739	754.710	601.892	-69.455	855.133	626.517	-361.354	765.211	659.581	-142.607	778.962	685.099	-397.750	762.007	577.619	-163.314	770.273	598.889	-399.544	653.544	144.053	-77.870	770.809	170.842	-356.327	645.058	202.271	-140.772	706.169	224.854	-364.685
	90	0.75000	711.569	910.426	-272.446	710.704	891.632	-223.312	708.247	893.503	-329.837	703.545	479.447	-200.330	709.559	481.817	-360.829	625.244	70.116	-179.136	656.151	68.723	-357.629	778.378	996.625	-276.335	780.832	994.755	-169.912	775.924	998.495	-382.757	575.438	1002.416	-227.968	571.769	1004.566	-316.027	715.813	482.475	-142.187	714.225	486.285	-419.977	689.952	500.578	-258.612	698.691	490.363	-313.298	623.255	72.457	-141.260	652.133	68.938	-396.924	621.954	70.364	-209.806	664.056	75.172	-328.310	580.318	45.807	-190.315	609.469	45.563	-355.796	689.515	1392.915	-280.381	734.625	1193.001	-284.227	600.248	1460.534	-287.552	701.688	1393.199	-198.487	702.050	1391.021	-354.270	745.386	42.851	-183.009	783.521	42.253	-372.747	754.698	601.888	-69.423	855.038	626.549	-361.340	765.189	659.588	-142.593	778.869	685.104	-397.739	761.998	577.626	-163.307	770.169	598.870	-399.498	653.532	144.050	-77.850	770.794	170.868	-356.337	645.093	202.240	-140.777	706.117	224.827	-364.665
	91	0.75833	711.521	910.210	-272.810	710.705	891.636	-223.278	708.203	893.517	-329.802	703.493	479.476	-200.290	709.461	481.813	-360.802	625.178	70.099	-179.135	656.123	68.717	-357.616	778.285	996.681	-276.319	780.784	994.802	-169.890	775.786	998.560	-382.748	575.628	1002.275	-227.700	571.658	1004.525	-315.900	715.772	482.504	-142.150	714.126	486.281	-419.951	689.980	500.584	-258.615	698.519	490.485	-313.254	623.197	72.435	-141.258	652.104	68.933	-396.911	621.909	70.366	-209.795	663.984	75.142	-328.308	580.312	45.759	-190.309	609.473	45.506	-355.774	689.520	1392.922	-280.455	734.694	1193.020	-284.228	600.223	1460.514	-287.553	701.724	1393.246	-198.584	702.028	1390.998	-354.330	745.375	42.878	-183.008	783.502	42.242	-372.759	754.667	601.874	-69.386	854.934	626.594	-361.323	765.129	659.623	-142.571	778.800	685.173	-397.759	761.983	577.652	-163.300	770.059	598.909	-399.485	653.500	144.047	-77.826	770.773	170.905	-356.349	645.022	202.261	-140.753	706.069	224.848	-364.668
	92	0.76667	711.471	909.909	-273.262	710.717	891.646	-223.234	708.184	893.530	-329.757	703.435	479.510	-200.239	709.353	481.812	-360.775	625.086	70.084	-179.130	656.077	68.711	-357.600	778.192	996.752	-276.287	780.723	994.868	-169.846	775.661	998.635	-382.728	575.888	1002.100	-227.394	571.564	1004.474	-315.786	715.726	482.536	-142.101	714.020	486.281	-419.923	689.980	500.636	-258.611	698.310	490.608	-313.292	623.111	72.415	-141.253	652.058	68.927	-396.895	621.861	70.384	-209.774	663.888	75.135	-328.313	580.303	45.699	-190.301	609.476	45.442	-355.753	689.510	1392.973	-280.502	734.839	1193.105	-284.142	600.196	1460.468	-287.552	701.716	1393.363	-198.612	702.018	1391.010	-354.395	745.354	42.912	-183.000	783.470	42.230	-372.769	754.620	601.859	-69.343	854.822	626.651	-361.303	765.051	659.689	-142.524	778.721	685.269	-397.767	761.947	577.708	-163.280	769.934	598.984	-399.498	653.448	144.049	-77.795	770.743	170.950	-356.358	644.836	202.327	-140.701	706.029	224.937	-364.672
	93	0.77500	711.436	909.599	-273.733	710.729	891.659	-223.173	708.174	893.541	-329.696	703.373	479.547	-200.178	709.242	481.817	-360.748	624.980	70.078	-179.120	656.021	68.709	-357.584	778.100	996.825	-276.240	780.654	994.944	-169.785	775.547	998.705	-382.695	576.180	1001.918	-227.073	571.486	1004.420	-315.683	715.674	482.572	-142.042	713.911	486.290	-419.896	689.923	500.733	-258.569	698.104	490.746	-313.367	623.012	72.403	-141.242	652.004	68.925	-396.879	621.811	70.427	-209.751	663.738	75.181	-328.306	580.291	45.639	-190.289	609.478	45.388	-355.736	689.520	1393.078	-280.538	735.089	1193.261	-284.001	600.180	1460.420	-287.553	701.756	1393.561	-198.642	702.003	1391.058	-354.444	745.329	42.949	-182.986	783.432	42.224	-372.774	754.567	601.850	-69.293	854.706	626.714	-361.280	764.957	659.794	-142.472	778.665	685.392	-397.750	761.884	577.821	-163.243	769.824	599.098	-399.512	653.385	144.053	-77.760	770.708	171.001	-356.365	644.517	202.432	-140.635	706.026	225.112	-364.674
	94	0.78333	711.422	909.376	-274.090	710.726	891.674	-223.099	708.155	893.549	-329.621	703.302	479.580	-200.106	709.133	481.827	-360.722	624.877	70.083	-179.103	655.970	68.709	-357.572	778.013	996.886	-276.180	780.583	995.013	-169.712	775.444	998.760	-382.648	576.415	1001.775	-226.786	571.419	1004.375	-315.590	715.618	482.602	-141.973	713.805	486.306	-419.869	689.856	500.834	-258.499	698.005	490.810	-313.409	622.919	72.401	-141.224	651.954	68.926	-396.866	621.770	70.478	-209.723	663.570	75.246	-328.283	580.280	45.590	-190.277	609.479	45.344	-355.722	691.698	1393.009	-280.437	738.937	1193.609	-285.304	600.192	1460.362	-287.555	706.382	1393.607	-199.170	701.975	1391.097	-354.463	745.307	42.978	-182.970	783.401	42.224	-372.773	754.523	601.848	-69.238	854.593	626.771	-361.252	764.828	659.884	-142.360	778.567	685.507	-397.672	761.808	577.932	-163.169	769.724	599.215	-399.489	653.326	144.054	-77.724	770.675	171.046	-356.369	644.153	202.533	-140.559	706.003	225.280	-364.647
	95	0.79167	711.413	909.325	-274.167	710.689	891.689	-223.017	708.104	893.556	-329.539	703.234	479.600	-200.031	709.034	481.836	-360.694	624.804	70.095	-179.080	655.940	68.706	-357.565	777.933	996.921	-276.112	780.517	995.055	-169.635	775.350	998.788	-382.590	576.484	1001.723	-226.596	571.356	1004.349	-315.502	715.565	482.620	-141.902	713.706	486.322	-419.840	689.745	500.901	-258.375	697.909	490.828	-313.399	622.856	72.406	-141.200	651.924	68.924	-396.859	621.751	70.493	-209.690	663.463	75.277	-328.262	580.272	45.563	-190.267	609.483	45.310	-355.713	689.448	1393.183	-280.536	735.227	1193.410	-283.751	600.203	1460.315	-287.546	701.673	1393.779	-198.605	701.942	1391.086	-354.474	745.292	42.990	-182.955	783.386	42.226	-372.762	754.495	601.850	-69.179	854.487	626.806	-361.217	764.713	659.942	-142.208	778.448	685.584	-397.570	761.722	577.984	-163.059	769.597	599.275	-399.439	653.286	144.045	-77.690	770.647	171.077	-356.366	643.904	202.574	-140.479	705.927	225.370	-364.610
	96	0.80000	711.369	909.438	-273.904	710.611	891.701	-222.933	708.013	893.563	-329.455	703.184	479.603	-199.966	708.944	481.838	-360.665	624.781	70.109	-179.051	655.941	68.696	-357.564	777.863	996.921	-276.043	780.461	995.060	-169.564	775.266	998.782	-382.522	576.339	1001.783	-226.530	571.293	1004.350	-315.406	715.526	482.620	-141.838	713.614	486.332	-419.811	689.622	500.915	-258.243	697.676	490.908	-313.384	622.839	72.416	-141.171	651.925	68.916	-396.858	621.767	70.483	-209.669	663.431	75.277	-328.248	580.267	45.564	-190.259	609.486	45.291	-355.708	687.789	1392.936	-280.705	731.799	1192.763	-283.750	600.206	1460.319	-287.519	698.186	1393.090	-198.357	701.912	1391.021	-354.518	745.286	42.982	-182.942	783.377	42.259	-372.771	754.484	601.852	-69.116	854.392	626.808	-361.174	764.663	659.974	-142.126	778.398	685.631	-397.520	761.656	577.989	-162.977	769.462	599.277	-399.406	653.274	144.028	-77.662	770.623	171.088	-356.356	643.830	202.565	-140.426	705.854	225.391	-364.600
